<svg width="106" height="103" viewBox="0 0 106 103" fill="none" xmlns="http://www.w3.org/2000/svg">
<path d="M5.42986 94.9364L4.18819 100.313C4.14974 100.476 4.16129 100.646 4.22131 100.803C4.28134 100.959 4.38706 101.093 4.52467 101.188C4.66227 101.283 4.82537 101.335 4.99265 101.336C5.15994 101.337 5.32363 101.287 5.46236 101.194L9.99986 98.1689L14.5374 101.194C14.6793 101.288 14.8467 101.337 15.0171 101.333C15.1874 101.329 15.3525 101.273 15.4902 101.173C15.6279 101.073 15.7315 100.933 15.7872 100.771C15.8428 100.61 15.8478 100.436 15.8015 100.272L14.2774 94.9389L18.0574 91.5372C18.1784 91.4282 18.2649 91.2861 18.306 91.1285C18.3472 90.9709 18.3413 90.8046 18.2889 90.6504C18.2366 90.4961 18.1402 90.3605 18.0117 90.2604C17.8832 90.1603 17.7281 90.1001 17.5657 90.0872L12.8149 89.7089L10.759 85.1581C10.6935 85.0115 10.5869 84.8871 10.4522 84.7998C10.3175 84.7125 10.1604 84.666 9.99986 84.666C9.83933 84.666 9.68223 84.7125 9.54752 84.7998C9.41281 84.8871 9.30625 85.0115 9.24069 85.1581L7.18486 89.7089L2.43403 90.0864C2.27441 90.0991 2.12181 90.1574 1.99449 90.2545C1.86717 90.3516 1.77052 90.4833 1.7161 90.6339C1.66169 90.7845 1.65181 90.9476 1.68765 91.1037C1.72349 91.2597 1.80353 91.4021 1.91819 91.5139L5.42986 94.9364ZM7.80736 91.3314C7.9561 91.3197 8.09896 91.2682 8.22094 91.1823C8.34293 91.0963 8.43956 90.9792 8.50069 90.8431L9.99986 87.5256L11.499 90.8431C11.5602 90.9792 11.6568 91.0963 11.7788 91.1823C11.9008 91.2682 12.0436 91.3197 12.1924 91.3314L15.5024 91.5939L12.7765 94.0472C12.5399 94.2606 12.4457 94.5889 12.5324 94.8956L13.5765 98.5497L10.4632 96.4739C10.3265 96.3822 10.1657 96.3332 10.0011 96.3332C9.83653 96.3332 9.67568 96.3822 9.53903 96.4739L6.28569 98.6431L7.16069 94.8547C7.19278 94.7154 7.18847 94.5702 7.14819 94.433C7.10791 94.2958 7.03301 94.1713 6.93069 94.0714L4.39903 91.6031L7.80736 91.3314Z" fill="#F87723"/>
<path d="M26.7634 94.9364L25.5217 100.313C25.4832 100.476 25.4948 100.646 25.5548 100.803C25.6148 100.959 25.7206 101.093 25.8582 101.188C25.9958 101.283 26.1589 101.335 26.3261 101.336C26.4934 101.337 26.6571 101.287 26.7959 101.194L31.3334 98.1689L35.8709 101.194C36.0128 101.288 36.1802 101.337 36.3505 101.333C36.5209 101.329 36.686 101.273 36.8237 101.173C36.9614 101.073 37.065 100.933 37.1207 100.771C37.1763 100.61 37.1813 100.436 37.135 100.272L35.6109 94.9389L39.3909 91.5372C39.5119 91.4282 39.5984 91.2861 39.6395 91.1285C39.6807 90.9709 39.6748 90.8046 39.6224 90.6504C39.5701 90.4961 39.4737 90.3605 39.3452 90.2604C39.2166 90.1603 39.0616 90.1001 38.8992 90.0872L34.1484 89.7089L32.0925 85.1581C32.027 85.0115 31.9204 84.8871 31.7857 84.7998C31.651 84.7125 31.4939 84.666 31.3334 84.666C31.1728 84.666 31.0157 84.7125 30.881 84.7998C30.7463 84.8871 30.6397 85.0115 30.5742 85.1581L28.5184 89.7089L23.7675 90.0864C23.6079 90.0991 23.4553 90.1574 23.328 90.2545C23.2007 90.3516 23.104 90.4833 23.0496 90.6339C22.9952 90.7845 22.9853 90.9476 23.0211 91.1037C23.057 91.2597 23.137 91.4021 23.2517 91.5139L26.7634 94.9364ZM29.1409 91.3314C29.2896 91.3197 29.4325 91.2682 29.5544 91.1823C29.6764 91.0963 29.7731 90.9792 29.8342 90.8431L31.3334 87.5256L32.8325 90.8431C32.8937 90.9792 32.9903 91.0963 33.1123 91.1823C33.2343 91.2682 33.3771 91.3197 33.5259 91.3314L36.8359 91.5939L34.11 94.0472C33.8734 94.2606 33.7792 94.5889 33.8659 94.8956L34.91 98.5497L31.7967 96.4739C31.66 96.3822 31.4992 96.3332 31.3346 96.3332C31.17 96.3332 31.0092 96.3822 30.8725 96.4739L27.6192 98.6431L28.4942 94.8547C28.5263 94.7154 28.522 94.5702 28.4817 94.433C28.4414 94.2958 28.3665 94.1713 28.2642 94.0714L25.7325 91.6031L29.1409 91.3314Z" fill="#F87723"/>
<path d="M48.0964 94.9364L46.8547 100.313C46.8162 100.476 46.8278 100.646 46.8878 100.803C46.9478 100.959 47.0536 101.093 47.1912 101.188C47.3288 101.283 47.4919 101.335 47.6592 101.336C47.8264 101.337 47.9901 101.287 48.1289 101.194L52.6664 98.1689L57.2039 101.194C57.3458 101.288 57.5132 101.337 57.6836 101.333C57.8539 101.329 58.019 101.273 58.1567 101.173C58.2944 101.073 58.398 100.933 58.4537 100.771C58.5093 100.61 58.5143 100.436 58.468 100.272L56.9439 94.9389L60.7239 91.5372C60.8449 91.4282 60.9314 91.2861 60.9725 91.1285C61.0137 90.9709 61.0078 90.8046 60.9554 90.6504C60.9031 90.4961 60.8067 90.3605 60.6782 90.2604C60.5497 90.1603 60.3946 90.1001 60.2322 90.0872L55.4814 89.7089L53.4255 85.1581C53.36 85.0115 53.2534 84.8871 53.1187 84.7998C52.984 84.7125 52.8269 84.666 52.6664 84.666C52.5058 84.666 52.3487 84.7125 52.214 84.7998C52.0793 84.8871 51.9727 85.0115 51.9072 85.1581L49.8514 89.7089L45.1005 90.0864C44.9409 90.0991 44.7883 90.1574 44.661 90.2545C44.5337 90.3516 44.437 90.4833 44.3826 90.6339C44.3282 90.7845 44.3183 90.9476 44.3542 91.1037C44.39 91.2597 44.47 91.4021 44.5847 91.5139L48.0964 94.9364ZM50.4739 91.3314C50.6226 91.3197 50.7655 91.2682 50.8874 91.1823C51.0094 91.0963 51.1061 90.9792 51.1672 90.8431L52.6664 87.5256L54.1655 90.8431C54.2267 90.9792 54.3233 91.0963 54.4453 91.1823C54.5673 91.2682 54.7101 91.3197 54.8589 91.3314L58.1689 91.5939L55.443 94.0472C55.2064 94.2606 55.1122 94.5889 55.1989 94.8956L56.243 98.5497L53.1297 96.4739C52.993 96.3822 52.8322 96.3332 52.6676 96.3332C52.503 96.3332 52.3422 96.3822 52.2055 96.4739L48.9522 98.6431L49.8272 94.8547C49.8593 94.7154 49.855 94.5702 49.8147 94.433C49.7744 94.2958 49.6995 94.1713 49.5972 94.0714L47.0655 91.6031L50.4739 91.3314Z" fill="#F87723"/>
<path d="M69.4299 94.9364L68.1882 100.313C68.1497 100.476 68.1613 100.646 68.2213 100.803C68.2813 100.959 68.3871 101.093 68.5247 101.188C68.6623 101.283 68.8254 101.335 68.9927 101.336C69.1599 101.337 69.3236 101.287 69.4624 101.194L73.9999 98.1689L78.5374 101.194C78.6793 101.288 78.8467 101.337 79.0171 101.333C79.1874 101.329 79.3525 101.273 79.4902 101.173C79.6279 101.073 79.7315 100.933 79.7872 100.771C79.8428 100.61 79.8478 100.436 79.8015 100.272L78.2774 94.9389L82.0574 91.5372C82.1784 91.4282 82.2649 91.2861 82.306 91.1285C82.3472 90.9709 82.3413 90.8046 82.2889 90.6504C82.2366 90.4961 82.1402 90.3605 82.0117 90.2604C81.8832 90.1603 81.7281 90.1001 81.5657 90.0872L76.8149 89.7089L74.759 85.1581C74.6935 85.0115 74.5869 84.8871 74.4522 84.7998C74.3175 84.7125 74.1604 84.666 73.9999 84.666C73.8393 84.666 73.6822 84.7125 73.5475 84.7998C73.4128 84.8871 73.3062 85.0115 73.2407 85.1581L71.1849 89.7089L66.434 90.0864C66.2744 90.0991 66.1218 90.1574 65.9945 90.2545C65.8672 90.3516 65.7705 90.4833 65.7161 90.6339C65.6617 90.7845 65.6518 90.9476 65.6876 91.1037C65.7235 91.2597 65.8035 91.4021 65.9182 91.5139L69.4299 94.9364ZM71.8074 91.3314C71.9561 91.3197 72.099 91.2682 72.2209 91.1823C72.3429 91.0963 72.4396 90.9792 72.5007 90.8431L73.9999 87.5256L75.499 90.8431C75.5602 90.9792 75.6568 91.0963 75.7788 91.1823C75.9008 91.2682 76.0436 91.3197 76.1924 91.3314L79.5024 91.5939L76.7765 94.0472C76.5399 94.2606 76.4457 94.5889 76.5324 94.8956L77.5765 98.5497L74.4632 96.4739C74.3265 96.3822 74.1657 96.3332 74.0011 96.3332C73.8365 96.3332 73.6757 96.3822 73.539 96.4739L70.2857 98.6431L71.1607 94.8547C71.1928 94.7154 71.1885 94.5702 71.1482 94.433C71.1079 94.2958 71.033 94.1713 70.9307 94.0714L68.399 91.6031L71.8074 91.3314Z" fill="#F87723"/>
<path d="M90.7634 94.9364L89.5217 100.313C89.4832 100.476 89.4948 100.646 89.5548 100.803C89.6148 100.959 89.7206 101.093 89.8582 101.188C89.9958 101.283 90.1589 101.335 90.3261 101.336C90.4934 101.337 90.6571 101.287 90.7959 101.194L95.3334 98.1689L99.8709 101.194C100.013 101.288 100.18 101.337 100.351 101.333C100.521 101.329 100.686 101.273 100.824 101.173C100.961 101.073 101.065 100.933 101.121 100.771C101.176 100.61 101.181 100.436 101.135 100.272L99.6109 94.9389L103.391 91.5372C103.512 91.4282 103.598 91.2861 103.64 91.1285C103.681 90.9709 103.675 90.8046 103.622 90.6504C103.57 90.4961 103.474 90.3605 103.345 90.2604C103.217 90.1603 103.062 90.1001 102.899 90.0872L98.1484 89.7089L96.0925 85.1581C96.027 85.0115 95.9204 84.8871 95.7857 84.7998C95.651 84.7125 95.4939 84.666 95.3334 84.666C95.1728 84.666 95.0157 84.7125 94.881 84.7998C94.7463 84.8871 94.6397 85.0115 94.5742 85.1581L92.5184 89.7089L87.7675 90.0864C87.6079 90.0991 87.4553 90.1574 87.328 90.2545C87.2007 90.3516 87.104 90.4833 87.0496 90.6339C86.9952 90.7845 86.9853 90.9476 87.0211 91.1037C87.057 91.2597 87.137 91.4021 87.2517 91.5139L90.7634 94.9364ZM93.1409 91.3314C93.2896 91.3197 93.4325 91.2682 93.5544 91.1823C93.6764 91.0963 93.7731 90.9792 93.8342 90.8431L95.3334 87.5256L96.8325 90.8431C96.8937 90.9792 96.9903 91.0963 97.1123 91.1823C97.2343 91.2682 97.3771 91.3197 97.5259 91.3314L100.836 91.5939L98.11 94.0472C97.8734 94.2606 97.7792 94.5889 97.8659 94.8956L98.91 98.5497L95.7967 96.4739C95.66 96.3822 95.4992 96.3332 95.3346 96.3332C95.17 96.3332 95.0092 96.3822 94.8725 96.4739L91.6192 98.6431L92.4942 94.8547C92.5263 94.7154 92.522 94.5702 92.4817 94.433C92.4414 94.2958 92.3665 94.1713 92.2642 94.0714L89.7325 91.6031L93.1409 91.3314Z" fill="#F87723"/>
<path d="M86.9062 15.7444C86.9062 14.7983 86.6256 13.8735 86.1 13.0869C85.5743 12.3002 84.8272 11.6871 83.9531 11.3251C83.079 10.963 82.1172 10.8683 81.1893 11.0528C80.2614 11.2374 79.409 11.693 78.74 12.3619L68.53 22.5719H37.2375C36.9474 22.5719 36.6692 22.6872 36.4641 22.8923C36.259 23.0974 36.1437 23.3756 36.1437 23.6657V38.5619H20.1875C19.8974 38.5619 19.6192 38.6772 19.4141 38.8823C19.209 39.0874 19.0938 39.3656 19.0938 39.6557V62.7107C19.0938 63.0008 19.209 63.279 19.4141 63.4841C19.6192 63.6892 19.8974 63.8045 20.1875 63.8045H22.8513V67.9451C22.8514 68.1613 22.9156 68.3727 23.0358 68.5524C23.1559 68.7322 23.3267 68.8723 23.5265 68.9551C23.7263 69.0378 23.9461 69.0595 24.1582 69.0173C24.3703 68.9751 24.5652 68.8711 24.7181 68.7182L29.6319 63.8045H54.7569C55.047 63.8045 55.3252 63.6892 55.5303 63.4841C55.7354 63.279 55.8506 63.0008 55.8506 62.7107V55.287H70.6494L77.26 61.897C77.413 62.0491 77.6076 62.1526 77.8194 62.1944C78.0311 62.2363 78.2504 62.2145 78.4498 62.1319C78.6492 62.0493 78.8197 61.9096 78.9398 61.7303C79.06 61.5511 79.1244 61.3403 79.125 61.1245V55.287H83.0063C83.2963 55.287 83.5745 55.1717 83.7796 54.9666C83.9848 54.7615 84.1 54.4833 84.1 54.1932V23.6657C84.1 23.3756 83.9848 23.0974 83.7796 22.8923C83.5745 22.6872 83.2963 22.5719 83.0063 22.5719H82.0625L85.5081 19.1263C85.9532 18.6831 86.306 18.1559 86.5459 17.5754C86.7859 16.9949 86.9084 16.3726 86.9062 15.7444ZM53.6606 61.6163H29.1788C28.8887 61.6165 28.6106 61.7318 28.4056 61.937L25.0387 65.3045V62.7107C25.0387 62.4206 24.9235 62.1424 24.7184 61.9373C24.5133 61.7322 24.2351 61.617 23.945 61.617H21.2812V40.7494H36.1437V54.1932C36.1437 54.4833 36.259 54.7615 36.4641 54.9666C36.6692 55.1717 36.9474 55.287 37.2375 55.287H53.6606V61.6163ZM81.9144 24.7594V53.0995H78.0331C77.743 53.0995 77.4648 53.2147 77.2597 53.4198C77.0546 53.6249 76.9394 53.9031 76.9394 54.1932V58.4832L71.8769 53.4207C71.6719 53.2155 71.3938 53.1002 71.1038 53.1001H38.3312V24.7594H66.3425L65.3781 25.7238C65.2373 25.8646 65.1377 26.0411 65.09 26.2344L63.5812 32.3357H43.5188C43.2287 32.3357 42.9505 32.4509 42.7454 32.656C42.5402 32.8612 42.425 33.1394 42.425 33.4294C42.425 33.7195 42.5402 33.9977 42.7454 34.2028C42.9505 34.408 43.2287 34.5232 43.5188 34.5232H64.4375C64.5196 34.5226 64.6014 34.5128 64.6813 34.4938H64.7L71.6325 32.7801C71.8258 32.7321 72.0023 32.6322 72.1431 32.4913L79.875 24.7594H81.9144ZM83.9587 17.5801L78.6462 22.8926L70.8125 30.7269L65.9375 31.9332L67.1437 27.0582L69.7588 24.4432L80.2881 13.9138C80.7761 13.4325 81.4347 13.1637 82.1201 13.166C82.8055 13.1684 83.4622 13.4416 83.9469 13.9263C84.4316 14.4109 84.705 15.0676 84.7075 15.753C84.7099 16.4384 84.4412 17.097 83.96 17.5851L83.9587 17.5801Z" fill="#F87723"/>
<path d="M42.4243 39.6562C42.4243 39.9463 42.5396 40.2245 42.7447 40.4296C42.9498 40.6348 43.228 40.75 43.5181 40.75H76.7268C77.0169 40.75 77.2951 40.6348 77.5002 40.4296C77.7053 40.2245 77.8206 39.9463 77.8206 39.6562C77.8206 39.3662 77.7053 39.088 77.5002 38.8828C77.2951 38.6777 77.0169 38.5625 76.7268 38.5625H43.5181C43.228 38.5625 42.9498 38.6777 42.7447 38.8828C42.5396 39.088 42.4243 39.3662 42.4243 39.6562Z" fill="#F87723"/>
<path d="M76.7268 44.7871H43.5181C43.228 44.7871 42.9498 44.9023 42.7447 45.1075C42.5396 45.3126 42.4243 45.5908 42.4243 45.8809C42.4243 46.1709 42.5396 46.4491 42.7447 46.6543C42.9498 46.8594 43.228 46.9746 43.5181 46.9746H76.7268C77.0169 46.9746 77.2951 46.8594 77.5002 46.6543C77.7053 46.4491 77.8206 46.1709 77.8206 45.8809C77.8206 45.5908 77.7053 45.3126 77.5002 45.1075C77.2951 44.9023 77.0169 44.7871 76.7268 44.7871Z" fill="#F87723"/>
</svg>
