<svg width="42" height="42" viewBox="0 0 42 42" fill="none" xmlns="http://www.w3.org/2000/svg">
<path d="M6.5 25.5V29.5C6.516 32.312 7.844 31.875 8.828 31.031L14.5 25.91V28.5C14.5 30.93 15.06 31.5 17.5 31.5H26.5C26.5 31.5 31.709 37.625 31.75 37.584C32.5 38.5 34.531 38.188 34.5 36.5V31.5H37.5C39.95 31.5 40.5 30.891 40.5 28.5V13.5C40.5 11.1 39.91 10.5 37.5 10.5H27.5V8.5C27.5 6.03 27.04 5.5 24.5 5.5H3.5C1.14 5.5 0.500004 6.01 0.500004 8.5V21.5C0.500004 23.939 1.05 25.5 3.5 25.5H6.5ZM31.5 28.5V33.221L27.5 28.5H18.5C17.75 28.5 17.5 28.23 17.5 27.5V14.5C17.5 13.83 17.81 13.5 18.5 13.5H36.5C37.189 13.5 37.5 13.87 37.5 14.44V27.5C37.5 28.221 37.141 28.5 36.5 28.5H31.5Z" fill="#E4E4E4"/>
<path d="M32.9735 19.207C32.9421 19.1222 32.8842 19.0476 32.8071 18.9926C32.73 18.9375 32.637 18.9044 32.5395 18.8972L29.689 18.6896L28.4555 16.1866C28.4162 16.106 28.3523 16.0375 28.2715 15.9895C28.1907 15.9414 28.0965 15.9158 28.0002 15.9158C27.9039 15.9157 27.8096 15.9412 27.7287 15.9892C27.6479 16.0372 27.5839 16.1056 27.5445 16.1862L26.311 18.6896L23.4605 18.8972C23.3647 18.9042 23.2732 18.9363 23.1968 18.9897C23.1204 19.0431 23.0624 19.1155 23.0298 19.1984C22.9971 19.2812 22.9912 19.3709 23.0127 19.4567C23.0342 19.5425 23.0822 19.6209 23.151 19.6823L25.2575 21.5647L24.5125 24.5219C24.4899 24.6114 24.4972 24.7051 24.5333 24.7908C24.5695 24.8764 24.633 24.9502 24.7154 25.0024C24.7979 25.0546 24.8956 25.0829 24.9958 25.0836C25.096 25.0843 25.1942 25.0574 25.2775 25.0063L28 23.3426L30.7225 25.0063C30.8077 25.0582 30.9081 25.0849 31.0103 25.0828C31.1125 25.0807 31.2116 25.0501 31.2942 24.9948C31.3768 24.9396 31.439 24.8626 31.4724 24.774C31.5058 24.6854 31.5088 24.5896 31.481 24.4994L30.5665 21.5661L32.8345 19.6952C32.983 19.5723 33.0375 19.3808 32.9735 19.207Z" fill="#E4E4E4"/>
</svg>
