<svg width="16" height="14" viewBox="0 0 16 14" fill="none" xmlns="http://www.w3.org/2000/svg">
<path d="M3.20833 0.333328H12.7917C13.4834 0.333283 14.149 0.597956 14.6519 1.07305C15.1547 1.54815 15.4567 2.19766 15.4958 2.88833L15.5 3.04166V10.9583C15.5 11.6501 15.2354 12.3157 14.7603 12.8185C14.2852 13.3214 13.6357 13.6233 12.945 13.6625L12.7917 13.6667H3.20833C2.51655 13.6667 1.85098 13.402 1.34814 12.9269C0.845306 12.4518 0.543332 11.8023 0.504167 11.1117L0.5 10.9583V3.04166C0.499955 2.34988 0.764628 1.6843 1.23973 1.18147C1.71482 0.678634 2.36433 0.37666 3.055 0.337495L3.20833 0.333328H12.7917H3.20833ZM12.7917 1.58333H3.20833C2.84234 1.58334 2.48974 1.72097 2.22051 1.96889C1.95128 2.21682 1.78512 2.55691 1.755 2.92166L1.75 3.04166V10.9583C1.75001 11.3243 1.88764 11.6769 2.13557 11.9462C2.38349 12.2154 2.72358 12.3815 3.08833 12.4117L3.20833 12.4167H12.7917C13.1578 12.4166 13.5105 12.2789 13.7798 12.0308C14.049 11.7827 14.2151 11.4424 14.245 11.0775L14.25 10.9583V3.04166C14.25 2.67554 14.1122 2.32282 13.8641 2.05357C13.616 1.78432 13.2757 1.61825 12.9108 1.58833L12.7917 1.58333ZM6.3775 4.98749C6.42119 4.90032 6.49407 4.83122 6.58345 4.79224C6.67283 4.75326 6.77305 4.74686 6.86667 4.77416L6.93667 4.80166L10.5883 6.62666C10.652 6.65841 10.7064 6.70593 10.7465 6.76468C10.7866 6.82343 10.811 6.89147 10.8173 6.96231C10.8237 7.03315 10.8118 7.10444 10.7828 7.16938C10.7538 7.23433 10.7086 7.29077 10.6517 7.33333L10.5883 7.37249L6.93667 9.19833C6.87884 9.22733 6.81505 9.24247 6.75036 9.24255C6.68567 9.24262 6.62184 9.22763 6.56395 9.19876C6.50605 9.1699 6.45567 9.12795 6.4168 9.07623C6.37793 9.02452 6.35164 8.96447 6.34 8.90083L6.33333 8.82499V5.17416C6.33334 5.10935 6.34846 5.04544 6.3775 4.98749Z" fill="#FD0C51"/>
</svg>
